<?xml version="1.0" encoding="utf-8"?>
<!-- Generator: Adobe Illustrator 23.0.2, SVG Export Plug-In . SVG Version: 6.00 Build 0)  -->
<svg version="1.1" id="Layer_1" xmlns="http://www.w3.org/2000/svg" xmlns:xlink="http://www.w3.org/1999/xlink" x="0px" y="0px"
	 viewBox="0 0 321.72 24" style="enable-background:new 0 0 321.72 24;" xml:space="preserve">
<style type="text/css">
	.st0{fill:#fff;}
	.st1{fill:#939393;}
	.st2{fill:#DD2222;}
	.st3{fill:#FFFFFF;}
	.st4{fill:#4C4C4C;}
</style>
<g>
	<rect x="84.16" y="1.25" class="st0" width="34.75" height="3.03"/>
	<rect x="84.16" y="19.62" class="st0" width="34.75" height="3.03"/>
	<path class="st0" d="M120.06,0.42V0l0,0h-0.42H82.91v0.42l0,0v23.17l0,0V24h37.15v-0.42l0,0V0.42L120.06,0.42z M119.74,23.48H83.33
		V0.42h36.42V23.48z"/>
	<path class="st0" d="M97.94,7.72l-3.55,8.56h-2.3L90.32,9.5c-0.1-0.42-0.21-0.63-0.52-0.83c-0.52-0.31-1.36-0.52-2.19-0.73
		l0.1-0.21h3.76c0.52,0,0.94,0.31,1.04,0.94l0.94,4.9l2.3-5.84C95.74,7.72,97.94,7.72,97.94,7.72z M107.22,13.46
		c0-2.19-3.13-2.3-3.03-3.34c0-0.31,0.31-0.63,0.94-0.73c0.31,0,1.25-0.1,2.09,0.42l0.42-1.88c-0.52-0.21-1.25-0.42-1.98-0.42
		c-2.19,0-3.76,1.15-3.76,2.82c0,1.25,1.15,1.98,1.98,2.3c0.83,0.42,1.15,0.73,1.15,1.04c0,0.63-0.73,0.83-1.36,0.83
		c-1.15,0-1.77-0.31-2.19-0.52l-0.42,1.88c0.52,0.21,1.46,0.42,2.4,0.42C105.66,16.38,107.22,15.23,107.22,13.46 M113.07,16.17h1.98
		l-1.88-8.56h-1.98c-0.42,0-0.83,0.21-0.94,0.63l-3.34,7.93h2.3l0.52-1.36h2.82L113.07,16.17z M110.46,13.25l1.15-3.13l0.73,3.13
		H110.46z M101.27,7.72l-1.88,8.56H97.2l1.88-8.56C98.98,7.72,101.27,7.72,101.27,7.72z"/>
</g>
<g>
	<path class="st0" d="M157.76,23.87v-1.59c0.04-0.52-0.36-0.97-0.88-1.01c-0.04,0-0.08,0-0.12,0c-0.36-0.02-0.7,0.15-0.89,0.45
		c-0.18-0.29-0.5-0.46-0.84-0.45c-0.3-0.01-0.58,0.13-0.74,0.38v-0.31h-0.55v2.53h0.56v-1.39c-0.04-0.32,0.18-0.62,0.51-0.67
		c0.04-0.01,0.07-0.01,0.11,0c0.37,0,0.55,0.24,0.55,0.67v1.41h0.56v-1.4c-0.04-0.33,0.19-0.63,0.51-0.67c0.04,0,0.07-0.01,0.11,0
		c0.38,0,0.56,0.24,0.56,0.67v1.41L157.76,23.87z M165.99,21.34h-0.91v-0.77h-0.56v0.77h-0.5v0.5h0.51V23
		c0,0.59,0.23,0.94,0.88,0.94c0.24,0,0.48-0.07,0.69-0.2l-0.16-0.47c-0.15,0.09-0.32,0.14-0.49,0.14c-0.26,0-0.37-0.17-0.37-0.42
		v-1.15h0.9L165.99,21.34z M170.69,21.27c-0.27-0.01-0.53,0.13-0.67,0.37v-0.31h-0.55v2.53h0.55v-1.42c0-0.42,0.18-0.65,0.53-0.65
		c0.12,0,0.23,0.02,0.34,0.06l0.17-0.53c-0.13-0.05-0.26-0.07-0.39-0.07L170.69,21.27z M163.58,21.54
		c-0.31-0.19-0.67-0.28-1.03-0.26c-0.64,0-1.06,0.31-1.06,0.81c0,0.41,0.31,0.67,0.87,0.75l0.26,0.04c0.3,0.04,0.44,0.12,0.44,0.26
		c0,0.2-0.2,0.31-0.58,0.31c-0.3,0.01-0.6-0.08-0.84-0.26l-0.26,0.43c0.32,0.22,0.71,0.34,1.1,0.33c0.73,0,1.15-0.34,1.15-0.83
		c0-0.48-0.33-0.68-0.88-0.76l-0.26-0.04c-0.24-0.03-0.43-0.08-0.43-0.25c0-0.17,0.18-0.3,0.48-0.3c0.28,0,0.55,0.08,0.79,0.22
		L163.58,21.54z M178.34,21.27c-0.27-0.01-0.53,0.13-0.67,0.37v-0.31h-0.55v2.53h0.55v-1.42c0-0.42,0.18-0.65,0.53-0.65
		c0.12,0,0.23,0.02,0.34,0.06l0.17-0.53c-0.13-0.05-0.26-0.07-0.39-0.07L178.34,21.27z M171.24,22.6c-0.03,0.71,0.53,1.3,1.23,1.33
		c0.04,0,0.08,0,0.12,0c0.33,0.02,0.66-0.09,0.91-0.3l-0.26-0.44c-0.19,0.15-0.42,0.23-0.66,0.23c-0.45-0.04-0.78-0.43-0.74-0.88
		c0.03-0.4,0.35-0.71,0.74-0.74c0.24,0,0.47,0.08,0.66,0.23l0.26-0.44c-0.26-0.21-0.58-0.32-0.91-0.3c-0.71-0.04-1.31,0.5-1.35,1.2
		c0,0.04,0,0.08,0,0.12V22.6z M176.4,22.6v-1.26h-0.55v0.31c-0.19-0.24-0.49-0.38-0.79-0.37c-0.73,0-1.32,0.59-1.32,1.32
		s0.59,1.32,1.32,1.32c0.31,0.01,0.6-0.13,0.79-0.37v0.31h0.55V22.6z M174.35,22.6c0.02-0.42,0.39-0.74,0.81-0.72
		c0.42,0.02,0.74,0.39,0.72,0.81c-0.02,0.4-0.36,0.72-0.76,0.72c-0.42,0.01-0.76-0.33-0.77-0.75
		C174.35,22.64,174.35,22.62,174.35,22.6z M167.7,21.27c-0.73,0.01-1.32,0.61-1.31,1.34c0.01,0.73,0.61,1.32,1.34,1.31l0,0
		c0.38,0.02,0.76-0.1,1.05-0.34l-0.26-0.41c-0.21,0.17-0.47,0.26-0.74,0.26c-0.38,0.03-0.71-0.24-0.76-0.62h1.88
		c0-0.07,0-0.14,0-0.21C168.91,21.81,168.42,21.28,167.7,21.27L167.7,21.27z M167.7,21.76c0.35-0.01,0.63,0.27,0.64,0.61
		c0,0,0,0,0,0h-1.32c0.02-0.35,0.32-0.63,0.67-0.61H167.7z M181.5,22.6v-2.28h-0.53v1.32c-0.19-0.24-0.49-0.38-0.79-0.37
		c-0.73,0-1.32,0.59-1.32,1.32s0.59,1.32,1.32,1.32c0.31,0.01,0.6-0.13,0.79-0.37v0.31h0.53V22.6z M182.42,23.5
		c0.03,0,0.07,0.01,0.1,0.02c0.03,0.01,0.06,0.03,0.08,0.05c0.02,0.02,0.04,0.05,0.06,0.08c0.03,0.06,0.03,0.13,0,0.2
		c-0.01,0.03-0.03,0.06-0.06,0.08c-0.02,0.02-0.05,0.04-0.08,0.05c-0.03,0.01-0.07,0.02-0.1,0.02c-0.1,0-0.2-0.06-0.24-0.15
		c-0.03-0.06-0.03-0.13,0-0.2c0.01-0.03,0.03-0.06,0.06-0.08c0.02-0.02,0.05-0.04,0.08-0.05C182.36,23.5,182.39,23.5,182.42,23.5
		L182.42,23.5z M182.42,23.95c0.03,0,0.05-0.01,0.08-0.02c0.02-0.01,0.04-0.02,0.06-0.04c0.07-0.07,0.07-0.19,0-0.26
		c-0.02-0.02-0.04-0.03-0.06-0.04c-0.02-0.01-0.05-0.02-0.08-0.02c-0.03,0-0.05,0.01-0.08,0.02c-0.02,0.01-0.05,0.02-0.06,0.04
		c-0.07,0.07-0.07,0.19,0,0.26c0.02,0.02,0.04,0.03,0.06,0.04C182.37,23.94,182.4,23.95,182.42,23.95L182.42,23.95z M182.44,23.63
		c0.02,0,0.05,0.01,0.07,0.02c0.02,0.01,0.03,0.03,0.02,0.06c0,0.02-0.01,0.04-0.02,0.05c-0.02,0.01-0.03,0.02-0.06,0.02l0.08,0.09
		h-0.06l-0.07-0.09h-0.02v0.09h-0.05v-0.23L182.44,23.63z M182.38,23.68v0.06h0.06c0.01,0,0.02,0,0.03,0c0-0.01,0-0.02,0-0.02
		c0-0.01,0-0.02,0-0.02c-0.01,0-0.02,0-0.03,0L182.38,23.68z M179.47,22.6c0.02-0.42,0.39-0.74,0.81-0.72
		c0.42,0.02,0.74,0.39,0.72,0.81c-0.02,0.4-0.36,0.72-0.76,0.72c-0.42,0.01-0.76-0.33-0.77-0.75
		C179.47,22.64,179.47,22.62,179.47,22.6z M160.87,22.6v-1.27h-0.55v0.31c-0.19-0.24-0.49-0.38-0.79-0.37
		c-0.73,0-1.32,0.59-1.32,1.32s0.59,1.32,1.32,1.32c0.31,0.01,0.6-0.13,0.79-0.37v0.31h0.55L160.87,22.6z M158.82,22.6
		c0.02-0.42,0.39-0.74,0.81-0.72c0.42,0.02,0.74,0.39,0.72,0.81c-0.02,0.4-0.36,0.72-0.76,0.72c-0.42,0.01-0.77-0.33-0.77-0.75
		C158.81,22.65,158.81,22.62,158.82,22.6L158.82,22.6z"/>
	<rect x="163.4" y="2.04" class="st1" width="8.34" height="14.99"/>
	<path id="_Path__3_" class="st0" d="M163.93,9.54c0-2.93,1.34-5.69,3.64-7.5c-4.14-3.25-10.14-2.54-13.39,1.61
		s-2.54,10.14,1.61,13.39c3.46,2.72,8.33,2.72,11.78,0C165.27,15.23,163.93,12.46,163.93,9.54z"/>
	<path class="st0" d="M183,9.54c0,5.27-4.27,9.54-9.54,9.54c-2.14,0-4.21-0.72-5.89-2.04c4.14-3.25,4.86-9.25,1.61-13.39
		c-0.47-0.6-1.01-1.14-1.61-1.61c4.14-3.25,10.13-2.54,13.39,1.6C182.28,5.32,183,7.4,183,9.54L183,9.54z"/>
	<path class="st0" d="M182.09,15.44v-0.31h0.12v-0.06h-0.32v0.06h0.14v0.31L182.09,15.44z M182.7,15.44v-0.37h-0.1l-0.11,0.26
		l-0.11-0.26h-0.08v0.37h0.07v-0.28l0.1,0.24h0.07l0.1-0.24v0.28L182.7,15.44z"/>
</g>
<g>
	<path class="st0" d="M307.15,5.92V24H271V5.92H307.15z M274.06,3.06h30.03V0h-30.03V3.06L274.06,3.06z M278.56,8.99h-4.49v4.49
		h2.25v-2.25h2.25V8.99z M278.56,18.89h-2.25v-2.25h-2.25v4.49h4.49V18.89z M293.57,15.11c0-1.23-0.41-2.25-1.33-3.17
		c-0.92-0.92-1.94-1.33-3.17-1.33c-1.23,0-2.25,0.41-3.17,1.33c-0.92,0.92-1.33,1.94-1.33,3.17s0.41,2.35,1.33,3.17
		s1.94,1.33,3.17,1.33c1.23,0,2.25-0.41,3.17-1.33C293.16,17.46,293.57,16.34,293.57,15.11z M304.09,8.99h-4.49v2.25h2.25v2.25h2.25
		V8.99L304.09,8.99z M304.09,16.54h-2.25v2.25h-2.25v2.25h4.49V16.54L304.09,16.54z"/>
</g>
<g>
	<path class="st0" d="M219.83,12.95v3.77h3.97l0.44-0.56l0.43,0.56h2.39v-0.87h0.54c0.46,0,0.68-0.15,0.68-0.15v1.01h1.59v-0.58
		l0.48,0.58h8.01c0.44,0,0.82-0.25,0.82-0.25V24h-24V11.78h1.11l0.24-0.59h0.64l0.24,0.59h9.04v-0.59l0.49,0.59h2.43v-0.42
		c0,0,0.41,0.42,1.05,0.42h1.62l0.23-0.59h0.64l0.24,0.59h2.38v-0.67l0.43,0.67h1.64V8.01h-1.64v0.67l-0.45-0.67h-1.62v1.17
		l-0.5-1.16l-2.82-0.01c-0.75,0-1.2,0.43-1.2,0.43V8.01h-8.68l-0.3,0.86l-0.3-0.86h-1.93v1.18l-0.51-1.18h-1.55l-0.9,2.1V0h24v12.95
		h-14.48l-0.45,0.56l-0.43-0.56H219.83z"/>
	<polygon class="st3" points="215.92,10.93 215.17,11.78 215.17,10.11 	"/>
	<path id="path3046_3_" class="st0" d="M216.39,8.48l-1.21,2.82h0.79l0.22-0.56h1.3l0.22,0.56h0.81l-1.21-2.82L216.39,8.48
		L216.39,8.48z M216.84,9.14l0.4,0.99h-0.79L216.84,9.14z"/>
	<path id="path3048_3_" class="st0" d="M218.6,11.3V8.48l1.12,0l0.65,1.82l0.64-1.82h1.11v2.82h-0.71V9.22l-0.75,2.08h-0.62
		l-0.75-2.08v2.08H218.6z"/>
	<path id="path3050_3_" class="st0" d="M222.61,11.3V8.48h2.3v0.63h-1.59v0.48h1.55v0.59h-1.55v0.5h1.59v0.61L222.61,11.3z"/>
	<path id="path3052_3_" class="st0" d="M225.32,8.48v2.82h0.71v-1h0.3l0.85,1h0.86l-0.93-1.04c0.38-0.03,0.77-0.36,0.77-0.87
		c0-0.59-0.47-0.92-0.99-0.92L225.32,8.48L225.32,8.48z M226.03,9.11h0.81c0.19,0,0.33,0.15,0.33,0.3c0,0.19-0.18,0.3-0.32,0.3
		h-0.82V9.11L226.03,9.11z"/>
	<path id="path3054_3_" class="st0" d="M228.89,11.3h-0.72V8.48h0.72V11.3z"/>
	<path id="path3056_3_" class="st0" d="M230.59,11.3h-0.16c-0.75,0-1.21-0.59-1.21-1.4c0-0.83,0.45-1.42,1.4-1.42h0.78v0.67h-0.81
		c-0.39,0-0.66,0.3-0.66,0.76c0,0.55,0.31,0.78,0.76,0.78h0.19L230.59,11.3z"/>
	<path id="path3058_3_" class="st0" d="M232.13,8.48l-1.21,2.82h0.79l0.22-0.56h1.3l0.22,0.56h0.81l-1.21-2.82L232.13,8.48
		L232.13,8.48z M232.58,9.14l0.4,0.99h-0.79L232.58,9.14L232.58,9.14z"/>
	<path id="path3060_3_" class="st0" d="M234.34,11.3V8.48h0.9l1.15,1.77V8.48h0.71v2.82h-0.87l-1.17-1.82v1.82H234.34z"/>
	<path id="path3062_3_" class="st0" d="M220.31,16.24v-2.82h2.3v0.63h-1.59v0.48h1.55v0.59h-1.55v0.5h1.59v0.61L220.31,16.24z"/>
	<path id="path3064_3_" class="st0" d="M231.59,16.24v-2.82h2.3v0.63h-1.59v0.48h1.54v0.59h-1.54v0.5h1.59v0.61L231.59,16.24z"/>
	<path id="path3066_3_" class="st0" d="M222.7,16.24l1.12-1.39l-1.15-1.43h0.89l0.68,0.88l0.69-0.88h0.85l-1.13,1.41l1.12,1.41
		h-0.89l-0.66-0.87l-0.65,0.87L222.7,16.24z"/>
	<path id="path3068_3_" class="st0" d="M225.86,13.42v2.82h0.72v-0.89h0.74c0.63,0,1.1-0.33,1.1-0.98c0-0.54-0.37-0.95-1.01-0.95
		H225.86L225.86,13.42z M226.59,14.06h0.78c0.2,0,0.35,0.12,0.35,0.32c0,0.19-0.14,0.32-0.35,0.32h-0.78V14.06L226.59,14.06z"/>
	<path id="path3072_3_" class="st0" d="M228.74,13.42v2.82h0.71v-1h0.3l0.85,1h0.86l-0.93-1.04c0.38-0.03,0.77-0.36,0.77-0.87
		c0-0.59-0.47-0.92-0.99-0.92L228.74,13.42L228.74,13.42z M229.44,14.05h0.81c0.19,0,0.33,0.15,0.33,0.3c0,0.19-0.18,0.3-0.32,0.3
		h-0.82V14.05z"/>
	<path id="path3074_3_" class="st0" d="M234.22,16.24v-0.61h1.41c0.21,0,0.3-0.11,0.3-0.24c0-0.12-0.09-0.24-0.3-0.24h-0.64
		c-0.55,0-0.86-0.34-0.86-0.85c0-0.45,0.28-0.89,1.11-0.89h1.37l-0.3,0.63h-1.19c-0.23,0-0.3,0.12-0.3,0.23
		c0,0.12,0.09,0.25,0.26,0.25h0.67c0.62,0,0.89,0.35,0.89,0.81c0,0.49-0.3,0.9-0.92,0.9H234.22z"/>
	<path id="path3076_3_" class="st0" d="M236.81,16.24v-0.61h1.41c0.21,0,0.3-0.11,0.3-0.24c0-0.12-0.09-0.24-0.3-0.24h-0.64
		c-0.55,0-0.86-0.34-0.86-0.85c0-0.45,0.28-0.89,1.11-0.89h1.37l-0.3,0.63h-1.19c-0.23,0-0.3,0.12-0.3,0.23
		c0,0.12,0.09,0.25,0.26,0.25h0.67c0.62,0,0.89,0.35,0.89,0.81c0,0.49-0.3,0.9-0.92,0.9H236.81z"/>
</g>
<g>
	<path class="st0" d="M7.38,16.62c-0.31-0.21-0.73-0.31-1.25-0.42C5.71,16.1,5.19,16,4.68,16c-0.62,0-1.25,0.1-1.87,0.31
		s-1.04,0.62-1.56,1.04c-0.42,0.42-0.73,0.94-1.04,1.56C0.1,19.53,0,20.26,0,20.99c0,0.94,0.31,1.66,0.83,2.18
		c0.52,0.42,1.35,0.73,2.39,0.73c0.42,0,0.73,0,0.83-0.1c0.21,0,0.42-0.1,0.73-0.21c0.21-0.1,0.42-0.1,0.62-0.21
		c0.21-0.1,0.42-0.21,0.52-0.21l0.42-1.77H6.13c-0.42,0.31-0.73,0.52-1.14,0.73c-0.42,0.21-0.83,0.31-1.35,0.31s-0.94-0.1-1.14-0.42
		c-0.31-0.31-0.42-0.73-0.42-1.35c0-0.94,0.21-1.77,0.73-2.29c0.52-0.62,1.14-0.94,1.87-0.94c0.42,0,0.83,0.1,1.14,0.21
		c0.31,0.21,0.62,0.42,0.94,0.73h0.21L7.38,16.62z"/>
	<path class="st0" d="M13.19,18.29c-0.31-0.21-0.73-0.42-1.25-0.42c-0.42,0-0.73,0.1-1.04,0.21c-0.31,0.1-0.62,0.31-1.04,0.62
		l0.62-2.81H8.73l-1.87,7.9h1.87l0.94-4.05c0.21-0.1,0.42-0.21,0.62-0.31c0.21-0.1,0.31-0.1,0.52-0.1c0.31,0,0.52,0.1,0.62,0.1
		c0.1,0.1,0.21,0.31,0.21,0.52c0,0.1,0,0.21,0,0.42c0,0.1-0.1,0.31-0.1,0.52l-0.62,2.81h1.87l0.83-3.74c0-0.1,0.1-0.31,0.1-0.42
		c0-0.1,0-0.21,0-0.31C13.61,18.81,13.4,18.49,13.19,18.29z"/>
	<path class="st0" d="M19.84,18.39c-0.42-0.31-1.04-0.52-1.97-0.52c-0.52,0-1.04,0.1-1.56,0.31c-0.52,0.21-0.83,0.42-1.14,0.73
		c-0.31,0.31-0.62,0.73-0.73,1.14c-0.21,0.42-0.31,0.94-0.31,1.45c0,0.73,0.31,1.35,0.83,1.77s1.25,0.62,2.29,0.62
		c0.42,0,0.83,0,1.25-0.1c0.42-0.1,0.73-0.21,1.14-0.31l0.31-1.45h-0.21c-0.31,0.21-0.62,0.31-0.94,0.42s-0.73,0.21-1.14,0.21
		c-0.62,0-1.04-0.1-1.25-0.31C16.1,22.13,16,21.82,16,21.4c0,0,0,0,0-0.1c0,0,0,0,0-0.1h4.26c0.1-0.21,0.1-0.42,0.21-0.62
		c0.1-0.21,0.1-0.42,0.1-0.73C20.57,19.22,20.36,18.7,19.84,18.39z M18.7,19.95c0,0.1,0,0.1,0,0.21l0,0h-2.49
		c0.1-0.42,0.31-0.62,0.62-0.83c0.21-0.21,0.62-0.31,0.94-0.31s0.52,0.1,0.73,0.21C18.7,19.32,18.7,19.53,18.7,19.95
		C18.7,19.84,18.7,19.95,18.7,19.95z"/>
	<path class="st0" d="M24.73,19.12c0.31,0,0.62,0.1,0.83,0.21c0.21,0.1,0.52,0.31,0.73,0.52h0.31l0.42-1.56
		c-0.31-0.1-0.62-0.31-0.94-0.31c-0.31-0.1-0.73-0.1-1.04-0.1c-0.62,0-1.14,0.1-1.66,0.31c-0.52,0.21-0.94,0.42-1.25,0.73
		c-0.31,0.31-0.62,0.73-0.83,1.14c-0.21,0.42-0.31,0.94-0.31,1.45c0,0.42,0.1,0.73,0.21,1.04c0.1,0.31,0.31,0.52,0.62,0.73
		c0.21,0.21,0.52,0.31,0.94,0.42c0.31,0.1,0.73,0.1,1.14,0.1c0.42,0,0.83,0,1.04-0.1c0.31-0.1,0.62-0.21,0.94-0.31l0.42-1.56h-0.31
		c-0.21,0.21-0.42,0.31-0.73,0.52c-0.31,0.1-0.62,0.21-0.94,0.21c-0.42,0-0.83-0.1-1.04-0.31c-0.21-0.21-0.31-0.52-0.31-0.94
		c0-0.62,0.21-1.14,0.52-1.56C23.69,19.32,24.1,19.12,24.73,19.12z"/>
	<polygon class="st0" points="33.66,17.97 31.58,17.97 28.99,20.16 29.82,15.79 28.05,15.79 26.49,23.69 28.26,23.69 28.68,21.92 
		28.88,21.3 30.65,23.69 32.62,23.69 30.44,20.68 	"/>
	<path class="st0" d="M36.68,17.87c-0.62,0-1.14,0.1-1.56,0.31c-0.42,0.21-0.83,0.52-1.14,0.83s-0.62,0.73-0.73,1.25
		c-0.21,0.42-0.21,0.94-0.21,1.45c0,0.73,0.21,1.25,0.73,1.66c0.42,0.42,1.14,0.62,1.97,0.62c0.62,0,1.14-0.1,1.56-0.31
		c0.42-0.21,0.83-0.42,1.14-0.83c0.31-0.31,0.62-0.73,0.73-1.25c0.21-0.42,0.31-0.94,0.31-1.45c0-0.73-0.21-1.25-0.73-1.66
		C38.13,17.97,37.51,17.87,36.68,17.87z M37.19,21.19c-0.1,0.31-0.21,0.52-0.31,0.83c-0.1,0.21-0.31,0.42-0.52,0.52
		c-0.21,0.1-0.42,0.21-0.62,0.21c-0.31,0-0.52-0.1-0.73-0.21c-0.21-0.21-0.31-0.42-0.31-0.83c0-0.31,0-0.62,0.1-0.94
		s0.21-0.62,0.31-0.83c0.1-0.21,0.31-0.42,0.52-0.52c0.21-0.1,0.42-0.21,0.73-0.21s0.62,0.1,0.73,0.31
		c0.21,0.21,0.21,0.42,0.21,0.83C37.3,20.57,37.3,20.88,37.19,21.19z"/>
	<path class="st0" d="M44.57,17.97l-0.94,4.05c-0.21,0.1-0.42,0.21-0.62,0.31c-0.21,0.1-0.42,0.1-0.52,0.1
		c-0.31,0-0.52-0.1-0.62-0.1c-0.1-0.1-0.21-0.31-0.21-0.52c0-0.1,0-0.21,0-0.42c0-0.21,0.1-0.31,0.1-0.52l0.62-2.81h-1.87
		l-0.83,3.74c0,0.1-0.1,0.21-0.1,0.31s0,0.21,0,0.31c0,0.52,0.1,0.83,0.42,1.04c0.31,0.21,0.73,0.31,1.14,0.31c0.21,0,0.31,0,0.52,0
		c0.21,0,0.31-0.1,0.52-0.21c0.21-0.1,0.31-0.1,0.52-0.21c0.21-0.1,0.31-0.21,0.52-0.31l-0.1,0.62h1.87l1.35-5.71
		C46.34,17.97,44.57,17.97,44.57,17.97z"/>
	<path class="st0" d="M48.31,21.3l0.52-2.08h1.77l0.31-1.25h-1.77l0.42-1.66h-1.87l-0.42,1.66l-0.31,1.25l-0.62,2.7
		c0,0.1,0,0.21-0.1,0.31c0,0.1,0,0.21,0,0.31c0,0.42,0.1,0.73,0.42,0.94c0.31,0.21,0.73,0.31,1.35,0.31c0.31,0,0.62,0,0.83-0.1
		c0.21,0,0.42-0.1,0.62-0.1l0.31-1.25h-0.1c-0.1,0-0.21,0.1-0.42,0.1c-0.1,0-0.31,0.1-0.42,0.1c-0.21,0-0.42,0-0.52-0.1
		c-0.1-0.1-0.21-0.21-0.21-0.42c0-0.1,0-0.21,0-0.42C48.31,21.51,48.31,21.4,48.31,21.3z"/>
	<path class="st0" d="M35.95,13.92l0.73-2.08h4.57l0.42,2.08h3.32L42.08,0.21h-3.01c-0.73,0-1.25,0.42-1.56,1.04l-5.3,12.68H35.95z
		 M39.58,3.95l1.04,5.19h-2.91L39.58,3.95z"/>
	<path class="st0" d="M26.6,11.32c-1.77,0-2.81-0.52-3.64-0.83l-0.62,3.01c0.83,0.42,2.39,0.73,3.95,0.73
		c3.74,0,6.13-1.87,6.13-4.68c0-3.64-4.99-3.84-4.99-5.4c0-0.52,0.52-1.04,1.45-1.14c0.52-0.1,1.87-0.1,3.53,0.62l0.62-2.91
		C32.21,0.31,31.17,0,29.82,0c-3.53,0-5.92,1.87-6.03,4.57c0,1.97,1.77,3.12,3.12,3.74s1.87,1.14,1.87,1.66
		C28.68,10.91,27.64,11.32,26.6,11.32z"/>
	<polygon class="st0" points="19.84,13.92 22.86,0.21 19.32,0.21 16.31,13.92 	"/>
	<path class="st0" d="M5.4,3.01l2.91,10.91h3.74l5.71-13.71h-3.74l-3.64,9.35l-1.56-7.9C8.62,0.73,8,0.21,7.17,0.21H1.14v0.42
		c1.25,0.31,2.6,0.73,3.53,1.14C5.09,2.08,5.3,2.39,5.4,3.01z"/>
</g>
</svg>
