<?xml version="1.0" encoding="utf-8"?>
<!-- Generator: Adobe Illustrator 19.2.1, SVG Export Plug-In . SVG Version: 6.00 Build 0)  -->
<svg version="1.1" id="Layer_1" xmlns="http://www.w3.org/2000/svg" xmlns:xlink="http://www.w3.org/1999/xlink" x="0px" y="0px"
	 viewBox="0 0 40 41" style="enable-background:new 0 0 40 41;" xml:space="preserve">
<style type="text/css">
	.st0{fill:#C8C8C8;}
</style>
<g>
	<path class="st0" d="M5.8,35.1l28.3-29"/>
	<polygon class="st0" points="7,36.3 4.7,34 33,5 35.3,7.3 	"/>
	<path class="st0" d="M8.3,17.1C3.7,17.1,0,13.3,0,8.5C0,3.8,3.7,0,8.3,0c4.6,0,8.3,3.8,8.3,8.5C16.7,13.3,13,17.1,8.3,17.1z
		 M8.3,3.4c-2.8,0-5,2.3-5,5.1c0,2.8,2.2,5.1,5,5.1c2.8,0,5-2.3,5-5.1C13.4,5.7,11.1,3.4,8.3,3.4z"/>
	<path class="st0" d="M31.7,41c-4.6,0-8.3-3.8-8.3-8.5c0-4.7,3.7-8.5,8.3-8.5s8.3,3.8,8.3,8.5C40,37.2,36.3,41,31.7,41z M31.7,27.3
		c-2.8,0-5,2.3-5,5.1c0,2.8,2.2,5.1,5,5.1c2.8,0,5-2.3,5-5.1C36.7,29.6,34.4,27.3,31.7,27.3z"/>
</g>
</svg>
